<?xml version="1.0" encoding="UTF-8"?>
<svg width="124px" height="124px" viewBox="0 0 124 124" version="1.1" xmlns="http://www.w3.org/2000/svg" xmlns:xlink="http://www.w3.org/1999/xlink">
    <!-- Generator: Sketch 44.1 (41455) - http://www.bohemiancoding.com/sketch -->
    <title>app-icon</title>
    <desc>Created with Sketch.</desc>
    <defs>
        <path d="M3.40411743,34.4536274 C6.00423122,20.3429492 19.5264496,6.5925408 33.6699175,4.18447249 C33.6699175,4.18447249 39.3278177,1.93333333 57.8542395,1.93333333 C76.756971,1.93333333 82.0437509,4.16045465 82.0437509,4.16045465 C96.1561109,6.78023381 109.898426,20.3057531 112.309176,34.4753138 C112.309176,34.4753138 114.567745,40.2624859 114.567745,58.6415137 C114.567745,77.7313661 112.352401,82.8317966 112.352401,82.8317966 C109.725756,96.9411511 96.182937,110.70986 82.0437509,113.122573 C82.0437509,113.122573 76.756971,115.349694 57.8542395,115.349694 C39.305057,115.349694 33.6759318,113.100959 33.6759318,113.100959 C19.5573842,110.493117 5.77130272,96.9742061 3.35368197,82.8261489 C3.35368197,82.8261489 1.14073427,77.7548833 1.14073427,58.6415137 C1.14073427,40.286003 3.40411743,34.4536274 3.40411743,34.4536274 Z" id="path-1"/>
        <filter x="-8.4%" y="-5.7%" width="116.8%" height="117.6%" filterUnits="objectBoundingBox" id="filter-2">
            <feOffset dx="0" dy="2" in="SourceAlpha" result="shadowOffsetOuter1"/>
            <feGaussianBlur stdDeviation="2.5" in="shadowOffsetOuter1" result="shadowBlurOuter1"/>
            <feColorMatrix values="0 0 0 0 0   0 0 0 0 0   0 0 0 0 0  0 0 0 0.5 0" type="matrix" in="shadowBlurOuter1" result="shadowMatrixOuter1"/>
            <feOffset dx="0" dy="2" in="SourceAlpha" result="shadowOffsetOuter2"/>
            <feGaussianBlur stdDeviation="0.5" in="shadowOffsetOuter2" result="shadowBlurOuter2"/>
            <feColorMatrix values="0 0 0 0 0   0 0 0 0 0   0 0 0 0 0  0 0 0 0.18 0" type="matrix" in="shadowBlurOuter2" result="shadowMatrixOuter2"/>
            <feMerge>
                <feMergeNode in="shadowMatrixOuter1"/>
                <feMergeNode in="shadowMatrixOuter2"/>
            </feMerge>
        </filter>
        <path d="M2.40128159,32.6894866 C5.01257327,18.5730645 18.5409238,4.81471746 32.6956099,2.38887296 C32.6956099,2.38887296 39.053323,2.615963e-14 58,0 C77.3315229,8.87415141e-14 83.325631,2.36657345 83.325631,2.36657345 C97.4337038,4.99703391 111.175437,18.5288008 113.601201,32.6953151 C113.601201,32.6953151 116,39.2022956 116,58 C116,77.5247217 113.645795,83.3285848 113.645795,83.3285848 C111.008504,97.4350263 97.4590102,111.205003 83.3093428,113.635901 C83.3093428,113.635901 77.3315229,116 58,116 C39.030046,116 32.6854631,113.611127 32.6854631,113.611127 C18.5712632,110.992982 4.7851224,97.4661624 2.35173322,83.3228124 C2.35173322,83.3228124 -2.49522625e-14,77.5487746 0,58 C-4.38676873e-14,39.2263485 2.40128159,32.6894866 2.40128159,32.6894866 Z" id="path-3"/>
    </defs>
    <g id="Web-App" stroke="none" stroke-width="1" fill="none" fill-rule="evenodd">
        <g id="Group-5-Copy" transform="translate(4.000000, 1.000000)">
            <g id="Rectangle-Copy-37" fill-opacity="1" fill="black">
                <use filter="url(#filter-2)" xlink:href="#path-1"/>
            </g>
            <path d="M2.40128159,32.6894866 C5.01257327,18.5730645 18.5409238,4.81471746 32.6956099,2.38887296 C32.6956099,2.38887296 39.053323,2.615963e-14 58,0 C77.3315229,8.87415141e-14 83.325631,2.36657345 83.325631,2.36657345 C97.4337038,4.99703391 111.175437,18.5288008 113.601201,32.6953151 C113.601201,32.6953151 116,39.2022956 116,58 C116,77.5247217 113.645795,83.3285848 113.645795,83.3285848 C111.008504,97.4350263 97.4590102,111.205003 83.3093428,113.635901 C83.3093428,113.635901 77.3315229,116 58,116 C39.030046,116 32.6854631,113.611127 32.6854631,113.611127 C18.5712632,110.992982 4.7851224,97.4661624 2.35173322,83.3228124 C2.35173322,83.3228124 -2.49522625e-14,77.5487746 0,58 C-4.38676873e-14,39.2263485 2.40128159,32.6894866 2.40128159,32.6894866 Z" id="Rectangle-Copy-36" fill="#504C58"/>
            <g id="Group-Copy-13">
                <mask id="mask-4" fill="white">
                    <use xlink:href="#path-3"/>
                </mask>
                <g id="Mask"/>
                <g id="Group-2" mask="url(#mask-4)" fill="#BABACC">
                    <g transform="translate(-3.000000, 73.000000)">
                        <rect id="Rectangle-2" x="60" y="0" width="2" height="23" rx="1"/>
                        <rect id="Rectangle-2-Copy-35" x="65" y="8" width="2" height="15" rx="1"/>
                        <rect id="Rectangle-2-Copy-36" x="70" y="8" width="2" height="15" rx="1"/>
                        <rect id="Rectangle-2-Copy-37" x="75" y="8" width="2" height="15" rx="1"/>
                        <rect id="Rectangle-2-Copy-34" x="80" y="0" width="2" height="23" rx="1"/>
                        <rect id="Rectangle-2-Copy-40" x="85" y="8" width="2" height="15" rx="1"/>
                        <rect id="Rectangle-2-Copy-39" x="90" y="8" width="2" height="15" rx="1"/>
                        <rect id="Rectangle-2-Copy-38" x="95" y="8" width="2" height="15" rx="1"/>
                        <rect id="Rectangle-2-Copy-44" x="100" y="0" width="2" height="23" rx="1"/>
                        <rect id="Rectangle-2-Copy-43" x="105" y="8" width="2" height="15" rx="1"/>
                        <rect id="Rectangle-2-Copy-42" x="110" y="8" width="2" height="15" rx="1"/>
                        <rect id="Rectangle-2-Copy-41" x="115" y="8" width="2" height="15" rx="1"/>
                        <rect id="Rectangle-2-Copy-48" x="40" y="0" width="2" height="23" rx="1"/>
                        <rect id="Rectangle-2-Copy-47" x="45" y="8" width="2" height="15" rx="1"/>
                        <rect id="Rectangle-2-Copy-46" x="50" y="8" width="2" height="15" rx="1"/>
                        <rect id="Rectangle-2-Copy-45" x="55" y="8" width="2" height="15" rx="1"/>
                        <rect id="Rectangle-2-Copy-52" x="20" y="0" width="2" height="23" rx="1"/>
                        <rect id="Rectangle-2-Copy-51" x="25" y="8" width="2" height="15" rx="1"/>
                        <rect id="Rectangle-2-Copy-50" x="30" y="8" width="2" height="15" rx="1"/>
                        <rect id="Rectangle-2-Copy-49" x="35" y="8" width="2" height="15" rx="1"/>
                        <rect id="Rectangle-2-Copy-56" x="0" y="0" width="2" height="23" rx="1"/>
                        <rect id="Rectangle-2-Copy-55" x="5" y="8" width="2" height="15" rx="1"/>
                        <rect id="Rectangle-2-Copy-54" x="10" y="8" width="2" height="15" rx="1"/>
                        <rect id="Rectangle-2-Copy-53" x="15" y="8" width="2" height="15" rx="1"/>
                    </g>
                </g>
            </g>
            <path d="M79,1.35762806 C75.2126259,0.713993683 68.6182576,4.87431986e-14 58,0 C39.053323,2.615963e-14 32.6956099,2.38887296 32.6956099,2.38887296 C18.5409238,4.81471746 5.01257327,18.5730645 2.40128159,32.6894866 C2.40128159,32.6894866 -4.38676873e-14,39.2263485 0,58 C-2.49522625e-14,77.5487746 2.35173322,83.3228124 2.35173322,83.3228124 C4.7851224,97.4661624 18.5712632,110.992982 32.6854631,113.611127 C32.6854631,113.611127 39.030046,116 58,116 C68.6270055,116 75.2185665,115.285577 79,114.642203 L79,1.35762806 Z" id="Combined-Shape" fill="#000000" opacity="0.200000003"/>
            <path d="M37,1.39443839 C33.9486638,1.91804539 32.6956099,2.38887296 32.6956099,2.38887296 C18.5409238,4.81471746 5.01257327,18.5730645 2.40128159,32.6894866 C2.40128159,32.6894866 -4.38676873e-14,39.2263485 0,58 C-2.49522625e-14,77.5487746 2.35173322,83.3228124 2.35173322,83.3228124 C4.7851224,97.4661624 18.5712632,110.992982 32.6854631,113.611127 C32.6854631,113.611127 33.9396387,114.083351 37,114.60789 L37,1.39443839 Z" id="Combined-Shape" fill="#000000" opacity="0.300000012"/>
            <circle id="Oval-5-Copy-6" fill="#57DD81" cx="93" cy="59" r="5"/>
            <path d="M26.7325418,45.6021161 L30.0951403,45.6021161 L30.0951403,23.4458169 L26.7018332,23.4458169 L20.8671875,27.5914862 L20.8671875,30.969439 L26.6557702,26.8544783 L26.7325418,26.8544783 L26.7325418,45.6021161 Z M43.5608883,46.0166831 C38.2482899,46.0166831 35.1006521,41.5639272 35.1006521,34.500935 C35.1006521,27.4840059 38.2789985,23.03125 43.5608883,23.03125 C48.8581324,23.03125 51.9904158,27.4686516 51.9904158,34.4855807 C51.9904158,41.5485728 48.8734867,46.0166831 43.5608883,46.0166831 Z M43.5608883,43.1300689 C46.7238804,43.1300689 48.5203371,39.8595965 48.5203371,34.500935 C48.5203371,29.2190453 46.6931718,25.9178642 43.5608883,25.9178642 C40.4286048,25.9178642 38.5860851,29.2343996 38.5860851,34.500935 C38.5860851,39.8442421 40.3978962,43.1300689 43.5608883,43.1300689 Z M57.4719119,42.1781004 C58.6081324,42.1781004 59.4833292,41.2875492 59.4833292,40.1666831 C59.4833292,39.0304626 58.6081324,38.1552657 57.4719119,38.1552657 C56.3510458,38.1552657 55.4604946,39.0304626 55.4604946,40.1666831 C55.4604946,41.2875492 56.3510458,42.1781004 57.4719119,42.1781004 Z M57.4719119,30.9847933 C58.6081324,30.9847933 59.4833292,30.1095965 59.4833292,28.973376 C59.4833292,27.8371555 58.6081324,26.9619587 57.4719119,26.9619587 C56.3510458,26.9619587 55.4604946,27.8371555 55.4604946,28.973376 C55.4604946,30.1095965 56.3510458,30.9847933 57.4719119,30.9847933 Z M68.1431718,35.5757382 L70.9069513,35.5757382 C73.8242741,35.5757382 75.6360851,37.0497539 75.6360851,39.4450295 C75.6360851,41.6099902 73.7014395,43.1454232 70.9990773,43.1454232 C68.2045891,43.1454232 66.4541954,41.6867618 66.2392347,39.5678642 L62.9380536,39.5678642 C63.1530143,43.3910925 66.2238804,46.0166831 70.9990773,46.0166831 C75.6207308,46.0166831 79.1368725,43.3603839 79.1368725,39.4910925 C79.1368725,36.3895177 76.9872662,34.3473917 73.6553765,34.1170768 C76.4038017,33.5643209 78.2156127,31.5836122 78.2156127,28.8198327 C78.2156127,25.4111713 75.1601009,23.03125 70.9683686,23.03125 C66.57703,23.03125 63.6443529,25.5340059 63.3833292,29.4186516 L66.623093,29.4186516 C66.8226993,27.2383366 68.4195497,25.8564469 70.8148253,25.8564469 C73.4404158,25.8564469 74.8530143,27.2229823 74.8530143,29.2804626 C74.8530143,31.3686516 73.2101009,32.873376 70.8148253,32.873376 L68.1431718,32.873376 L68.1431718,35.5757382 Z M90.4376599,46.0166831 C85.1250615,46.0166831 81.9774237,41.5639272 81.9774237,34.500935 C81.9774237,27.4840059 85.1557702,23.03125 90.4376599,23.03125 C95.734904,23.03125 98.8671875,27.4686516 98.8671875,34.4855807 C98.8671875,41.5485728 95.7502584,46.0166831 90.4376599,46.0166831 Z M90.4376599,43.1300689 C93.6006521,43.1300689 95.3971088,39.8595965 95.3971088,34.500935 C95.3971088,29.2190453 93.5699434,25.9178642 90.4376599,25.9178642 C87.3053765,25.9178642 85.4628568,29.2343996 85.4628568,34.500935 C85.4628568,39.8442421 87.2746678,43.1300689 90.4376599,43.1300689 Z" id="10:30-copy-6" fill="#FFFFFF"/>
        </g>
    </g>
</svg>